<?xml version="1.0" encoding="UTF-8"?>
<!DOCTYPE svg PUBLIC "-//W3C//DTD SVG 1.1//EN" "http://www.w3.org/Graphics/SVG/1.1/DTD/svg11.dtd">
<svg xmlns="http://www.w3.org/2000/svg" version="1.1" width="270px" height="284px" style="shape-rendering:geometricPrecision; text-rendering:geometricPrecision; image-rendering:optimizeQuality; fill-rule:evenodd; clip-rule:evenodd" xmlns:xlink="http://www.w3.org/1999/xlink">
<g><path style="opacity:1" fill="#115c24" d="M -0.5,-0.5 C 2.16667,-0.5 4.83333,-0.5 7.5,-0.5C 7.73583,2.91394 8.4025,6.24727 9.5,9.5C 13.8308,12.8235 13.4974,15.4902 8.5,17.5C 7,21.1667 5.5,24.8333 4,28.5C 1.55366,29.4445 0.0536598,31.1112 -0.5,33.5C -0.5,22.1667 -0.5,10.8333 -0.5,-0.5 Z"/></g>
<g><path style="opacity:0.394" fill="#0e897f" d="M 11.5,-0.5 C 12.5,-0.5 13.5,-0.5 14.5,-0.5C 13.6923,6.40008 15.0256,7.06675 18.5,1.5C 21.505,-0.25874 23.505,0.407927 24.5,3.5C 23.5837,3.01834 22.5837,2.68501 21.5,2.5C 19.4697,4.2742 17.3031,5.94087 15,7.5C 14.228,7.3552 13.5613,7.02186 13,6.5C 12.7096,4.07963 12.2096,1.7463 11.5,-0.5 Z"/></g>
<g><path style="opacity:1" fill="#115c24" d="M -0.5,51.5 C -0.5,48.5 -0.5,45.5 -0.5,42.5C 3.602,36.4071 7.43533,30.0738 11,23.5C 15.0344,20.4157 17.7011,16.4157 19,11.5C 19.8373,9.99256 21.0039,9.49256 22.5,10C 23.3578,12.8818 24.8578,15.3818 27,17.5C 26.8733,21.5154 28.2067,24.8487 31,27.5C 31.9692,35.0811 34.3025,42.0811 38,48.5C 38.893,54.6892 40.7264,60.5226 43.5,66C 43.8505,69.4963 42.3505,71.3297 39,71.5C 35.1841,70.5877 31.3508,69.7544 27.5,69C 21.485,65.1405 15.1517,61.9738 8.5,59.5C 5.50572,56.8398 2.50572,54.1731 -0.5,51.5 Z"/></g>
<g><path style="opacity:0.175" fill="#0f8378" d="M 24.5,3.5 C 25.4959,3.41423 26.3292,3.74756 27,4.5C 27.8035,7.2442 28.8035,9.91086 30,12.5C 34.7789,17.4833 36.9456,23.4833 36.5,30.5C 35.0524,25.5109 33.219,20.5109 31,15.5C 27.5635,12.301 25.3969,8.30098 24.5,3.5 Z"/></g>
<g><path style="opacity:0.08" fill="#129384" d="M 71.5,36.5 C 68.7572,32.649 66.7572,28.3157 65.5,23.5C 63.5787,22.359 61.5787,22.1923 59.5,23C 55.1666,25.8285 52.1666,29.6618 50.5,34.5C 49.6431,35.4252 48.6431,36.0919 47.5,36.5C 48.6329,32.901 50.2995,29.5676 52.5,26.5C 55.1092,25.5569 57.1092,23.8903 58.5,21.5C 61.3659,20.2054 64.1993,20.2054 67,21.5C 68.9671,26.3703 70.4671,31.3703 71.5,36.5 Z"/></g>
<g><path style="opacity:0.986" fill="#188135" d="M 71.5,36.5 C 71.3253,38.6208 71.6586,40.6208 72.5,42.5C 71.609,43.1098 70.609,43.4431 69.5,43.5C 66.6257,39.7407 64.7924,35.4074 64,30.5C 62.6124,29.4464 61.1124,29.2797 59.5,30C 54.6373,34.8183 51.304,40.6517 49.5,47.5C 47.4991,49.8688 45.4991,52.2021 43.5,54.5C 41.2776,54.4413 40.2776,53.2747 40.5,51C 40.5572,48.7911 41.5572,47.2911 43.5,46.5C 45.9355,43.6261 47.2688,40.2927 47.5,36.5C 48.6431,36.0919 49.6431,35.4252 50.5,34.5C 52.1666,29.6618 55.1666,25.8285 59.5,23C 61.5787,22.1923 63.5787,22.359 65.5,23.5C 66.7572,28.3157 68.7572,32.649 71.5,36.5 Z"/></g>
<g><path style="opacity:0.999" fill="#146e2c" d="M 7.5,-0.5 C 8.83333,-0.5 10.1667,-0.5 11.5,-0.5C 12.2096,1.7463 12.7096,4.07963 13,6.5C 13.5613,7.02186 14.228,7.3552 15,7.5C 17.3031,5.94087 19.4697,4.2742 21.5,2.5C 22.5837,2.68501 23.5837,3.01834 24.5,3.5C 25.3969,8.30098 27.5635,12.301 31,15.5C 33.219,20.5109 35.0524,25.5109 36.5,30.5C 36.945,35.3374 38.1117,40.004 40,44.5C 40.8159,45.8228 41.9826,46.4894 43.5,46.5C 41.5572,47.2911 40.5572,48.7911 40.5,51C 40.2776,53.2747 41.2776,54.4413 43.5,54.5C 44.6812,58.0939 46.3479,61.4272 48.5,64.5C 49.8257,63.0098 51.3257,61.6765 53,60.5C 53.4828,59.552 53.6495,58.552 53.5,57.5C 60.3252,54.6834 65.6586,50.0168 69.5,43.5C 70.609,43.4431 71.609,43.1098 72.5,42.5C 76.2797,41.2213 78.9464,38.7213 80.5,35C 83.4471,34.8882 84.7804,33.3882 84.5,30.5C 87.4552,29.8413 90.4552,29.5079 93.5,29.5C 96.3798,38.8062 99.3798,47.8062 102.5,56.5C 102.294,59.4951 102.96,62.1617 104.5,64.5C 104.833,68.5 105.167,72.5 105.5,76.5C 104.5,76.5 103.5,76.5 102.5,76.5C 104.105,82.5519 102.105,86.5519 96.5,88.5C 95.2941,90.4841 95.2941,92.4841 96.5,94.5C 99.2573,95.7532 101.591,97.5865 103.5,100C 101.362,103.104 99.0287,103.27 96.5,100.5C 95.8333,99.1667 95.1667,97.8333 94.5,96.5C 91.4937,99.0574 88.4937,99.0574 85.5,96.5C 84.8076,97.0253 84.3076,97.6919 84,98.5C 82.5993,96.8078 80.7659,96.1412 78.5,96.5C 78.8913,100.705 81.2247,102.538 85.5,102C 88.1143,98.7681 90.4476,99.1014 92.5,103C 91.8095,104.067 91.3095,105.234 91,106.5C 84.7156,107.524 78.2156,107.69 71.5,107C 74.4942,110.107 75.8275,113.607 75.5,117.5C 74.4264,118.08 73.4264,117.58 72.5,116C 70.8659,115.506 69.1992,115.34 67.5,115.5C 67.33,114.178 67.6634,113.011 68.5,112C 57.1036,101.281 44.2703,93.7815 30,89.5C 29.989,92.8147 30.8223,95.9813 32.5,99C 32.1667,99.5 31.8333,100 31.5,100.5C 26.9634,98.2973 22.1301,96.964 17,96.5C 16.228,96.6448 15.5613,96.9781 15,97.5C 14.654,99.2182 14.154,100.885 13.5,102.5C 15.3435,104.982 16.6769,107.649 17.5,110.5C 11.4406,110.254 5.44064,110.587 -0.5,111.5C -0.5,91.5 -0.5,71.5 -0.5,51.5C 2.50572,54.1731 5.50572,56.8398 8.5,59.5C 15.1517,61.9738 21.485,65.1405 27.5,69C 31.3508,69.7544 35.1841,70.5877 39,71.5C 42.3505,71.3297 43.8505,69.4963 43.5,66C 40.7264,60.5226 38.893,54.6892 38,48.5C 34.3025,42.0811 31.9692,35.0811 31,27.5C 28.2067,24.8487 26.8733,21.5154 27,17.5C 24.8578,15.3818 23.3578,12.8818 22.5,10C 21.0039,9.49256 19.8373,9.99256 19,11.5C 17.7011,16.4157 15.0344,20.4157 11,23.5C 7.43533,30.0738 3.602,36.4071 -0.5,42.5C -0.5,39.5 -0.5,36.5 -0.5,33.5C 0.0536598,31.1112 1.55366,29.4445 4,28.5C 5.5,24.8333 7,21.1667 8.5,17.5C 13.4974,15.4902 13.8308,12.8235 9.5,9.5C 8.4025,6.24727 7.73583,2.91394 7.5,-0.5 Z"/></g>
<g><path style="opacity:1" fill="#115d24" d="M 69.5,43.5 C 65.6586,50.0168 60.3252,54.6834 53.5,57.5C 53.6495,58.552 53.4828,59.552 53,60.5C 51.3257,61.6765 49.8257,63.0098 48.5,64.5C 46.3479,61.4272 44.6812,58.0939 43.5,54.5C 45.4991,52.2021 47.4991,49.8688 49.5,47.5C 51.304,40.6517 54.6373,34.8183 59.5,30C 61.1124,29.2797 62.6124,29.4464 64,30.5C 64.7924,35.4074 66.6257,39.7407 69.5,43.5 Z"/></g>
<g><path style="opacity:1" fill="#115c24" d="M 87.5,35.5 C 89.3904,35.2965 90.8904,35.9632 92,37.5C 92.8816,40.7895 93.5483,44.1228 94,47.5C 94.6667,48.8333 95.6667,49.8333 97,50.5C 98.0785,57.2259 99.4119,63.8926 101,70.5C 101.667,75.1667 101.667,79.8333 101,84.5C 97.2564,85.626 93.423,85.7927 89.5,85C 81.79,83.8844 74.1234,82.5511 66.5,81C 61.5171,79.3462 57.0171,76.8462 53,73.5C 52.7266,71.8988 52.2266,70.3988 51.5,69C 55.5,65 59.5,61 63.5,57C 65.5912,55.2736 67.9245,54.1069 70.5,53.5C 70.3505,52.448 70.5172,51.448 71,50.5C 72.5,49.6667 73.6667,48.5 74.5,47C 75.448,46.5172 76.448,46.3505 77.5,46.5C 77.3505,45.448 77.5172,44.448 78,43.5C 82.558,42.4388 85.7247,39.7722 87.5,35.5 Z"/></g>
<g><path style="opacity:0.145" fill="#0f8479" d="M 102.5,56.5 C 99.3798,47.8062 96.3798,38.8062 93.5,29.5C 90.4552,29.5079 87.4552,29.8413 84.5,30.5C 84.7804,33.3882 83.4471,34.8882 80.5,35C 78.9464,38.7213 76.2797,41.2213 72.5,42.5C 71.6586,40.6208 71.3253,38.6208 71.5,36.5C 72.9311,36.8807 73.7645,37.8807 74,39.5C 77.0687,36.0543 80.2354,32.721 83.5,29.5C 86.9959,27.7387 90.6626,27.2387 94.5,28C 95.8293,34.6574 98.3293,40.8241 102,46.5C 102.498,49.8168 102.665,53.1501 102.5,56.5 Z"/></g>
<g><path style="opacity:0.096" fill="#0d8a82" d="M 36.5,30.5 C 38.6702,34.984 40.6702,39.6507 42.5,44.5C 43.8321,41.5271 45.4987,38.8604 47.5,36.5C 47.2688,40.2927 45.9355,43.6261 43.5,46.5C 41.9826,46.4894 40.8159,45.8228 40,44.5C 38.1117,40.004 36.945,35.3374 36.5,30.5 Z"/></g>
<g><path style="opacity:0.222" fill="#0b8783" d="M 102.5,56.5 C 103.768,58.9052 104.435,61.5718 104.5,64.5C 102.96,62.1617 102.294,59.4951 102.5,56.5 Z"/></g>
<g><path style="opacity:0.999" fill="#14732d" d="M 105.5,76.5 C 104.34,84.3364 107.673,87.3364 115.5,85.5C 115.33,86.8221 115.663,87.9887 116.5,89C 119.177,89.1676 121.51,90.001 123.5,91.5C 123.414,92.4959 123.748,93.3292 124.5,94C 127.03,94.3793 129.363,95.2126 131.5,96.5C 133.956,98.4119 136.622,100.245 139.5,102C 143.233,103.213 146.9,104.38 150.5,105.5C 150.414,106.496 150.748,107.329 151.5,108C 153.392,108.973 155.392,109.64 157.5,110C 158.357,110.689 159.023,111.522 159.5,112.5C 163.21,113.919 166.877,115.253 170.5,116.5C 171.5,117.833 172.5,119.167 173.5,120.5C 156.233,121.599 146.567,130.766 144.5,148C 144.97,154.575 147.303,160.408 151.5,165.5C 154.306,166.168 156.972,166.834 159.5,167.5C 141.497,167.333 123.497,167.5 105.5,168C 103.158,169.171 100.824,170.338 98.5,171.5C 97.8728,172.417 97.5394,173.417 97.5,174.5C 93.8714,175.417 91.8714,177.75 91.5,181.5C 90.2794,182.028 89.1127,182.695 88,183.5C 87.0858,188.971 85.9191,194.305 84.5,199.5C 83.5041,199.414 82.6708,199.748 82,200.5C 81.1072,205.419 79.6072,210.086 77.5,214.5C 74.6018,215.653 72.6018,217.653 71.5,220.5C 68.3762,223 65.0429,225.334 61.5,227.5C 60.2528,229.323 59.5861,231.323 59.5,233.5C 57.4727,233.338 55.4727,233.505 53.5,234C 51.5101,235.751 49.1768,236.751 46.5,237C 45.6634,238.011 45.33,239.178 45.5,240.5C 40.1584,240.615 35.1584,241.948 30.5,244.5C 28.5642,243.741 26.7309,242.741 25,241.5C 21.2078,243.022 17.3745,244.355 13.5,245.5C 13.719,246.675 13.3857,247.675 12.5,248.5C 10.5675,247.48 8.56751,247.313 6.5,248C 5.66337,249.011 5.33003,250.178 5.5,251.5C 3.38814,250.725 1.38814,250.725 -0.5,251.5C -0.5,204.833 -0.5,158.167 -0.5,111.5C 5.44064,110.587 11.4406,110.254 17.5,110.5C 16.6769,107.649 15.3435,104.982 13.5,102.5C 14.154,100.885 14.654,99.2182 15,97.5C 15.5613,96.9781 16.228,96.6448 17,96.5C 22.1301,96.964 26.9634,98.2973 31.5,100.5C 31.8333,100 32.1667,99.5 32.5,99C 30.8223,95.9813 29.989,92.8147 30,89.5C 44.2703,93.7815 57.1036,101.281 68.5,112C 67.6634,113.011 67.33,114.178 67.5,115.5C 69.1992,115.34 70.8659,115.506 72.5,116C 73.4264,117.58 74.4264,118.08 75.5,117.5C 75.8275,113.607 74.4942,110.107 71.5,107C 78.2156,107.69 84.7156,107.524 91,106.5C 91.3095,105.234 91.8095,104.067 92.5,103C 90.4476,99.1014 88.1143,98.7681 85.5,102C 81.2247,102.538 78.8913,100.705 78.5,96.5C 80.7659,96.1412 82.5993,96.8078 84,98.5C 84.3076,97.6919 84.8076,97.0253 85.5,96.5C 88.4937,99.0574 91.4937,99.0574 94.5,96.5C 95.1667,97.8333 95.8333,99.1667 96.5,100.5C 99.0287,103.27 101.362,103.104 103.5,100C 101.591,97.5865 99.2573,95.7532 96.5,94.5C 95.2941,92.4841 95.2941,90.4841 96.5,88.5C 102.105,86.5519 104.105,82.5519 102.5,76.5C 103.5,76.5 104.5,76.5 105.5,76.5 Z"/></g>
<g><path style="opacity:0.198" fill="#0c8881" d="M 104.5,64.5 C 105.693,64.9704 106.36,65.9704 106.5,67.5C 107.178,72.8142 107.678,78.1475 108,83.5C 110.607,84.1233 113.107,84.79 115.5,85.5C 107.673,87.3364 104.34,84.3364 105.5,76.5C 105.167,72.5 104.833,68.5 104.5,64.5 Z"/></g>
<g><path style="opacity:0.361" fill="#0c8982" d="M 115.5,85.5 C 117.49,86.999 119.823,87.8324 122.5,88C 123.337,89.0113 123.67,90.1779 123.5,91.5C 121.51,90.001 119.177,89.1676 116.5,89C 115.663,87.9887 115.33,86.8221 115.5,85.5 Z"/></g>
<g><path style="opacity:0.507" fill="#118372" d="M 123.5,91.5 C 125.414,92.1847 127.414,92.6847 129.5,93C 130.823,93.8159 131.489,94.9826 131.5,96.5C 129.363,95.2126 127.03,94.3793 124.5,94C 123.748,93.3292 123.414,92.4959 123.5,91.5 Z"/></g>
<g><path style="opacity:0.336" fill="#128678" d="M 131.5,96.5 C 132.873,96.3433 134.207,96.51 135.5,97C 140.925,99.3889 145.925,102.222 150.5,105.5C 146.9,104.38 143.233,103.213 139.5,102C 136.622,100.245 133.956,98.4119 131.5,96.5 Z"/></g>
<g><path style="opacity:0.122" fill="#10887b" d="M 150.5,105.5 C 152.767,106.423 155.1,107.256 157.5,108C 162.216,110.401 166.549,113.234 170.5,116.5C 166.877,115.253 163.21,113.919 159.5,112.5C 159.023,111.522 158.357,110.689 157.5,110C 155.392,109.64 153.392,108.973 151.5,108C 150.748,107.329 150.414,106.496 150.5,105.5 Z"/></g>
<g><path style="opacity:1" fill="#14762e" d="M 173.5,120.5 C 176.356,121.828 179.356,122.828 182.5,123.5C 182.511,125.017 183.177,126.184 184.5,127C 188.611,128.891 192.944,129.891 197.5,130C 198.357,130.689 199.023,131.522 199.5,132.5C 204.845,134.175 210.178,135.841 215.5,137.5C 216.835,139.797 218.668,141.797 221,143.5C 220.906,146.501 222.239,148.501 225,149.5C 224.663,153.183 226.163,155.516 229.5,156.5C 230.833,159.833 233.167,162.167 236.5,163.5C 238.459,167.126 241.126,170.126 244.5,172.5C 244.5,173.167 244.5,173.833 244.5,174.5C 240.88,175.452 239.213,177.785 239.5,181.5C 237.158,181.504 235.158,182.337 233.5,184C 220.518,185.249 207.518,185.583 194.5,185C 192.147,184.117 190.313,182.617 189,180.5C 186.566,179.678 184.066,179.344 181.5,179.5C 181.489,177.983 180.823,176.816 179.5,176C 176.969,175.552 174.636,174.719 172.5,173.5C 170.291,172.044 167.957,170.544 165.5,169C 163.527,168.505 161.527,168.338 159.5,168.5C 159.5,168.167 159.5,167.833 159.5,167.5C 156.972,166.834 154.306,166.168 151.5,165.5C 147.303,160.408 144.97,154.575 144.5,148C 146.567,130.766 156.233,121.599 173.5,120.5 Z"/></g>
<g><path style="opacity:0.137" fill="#0e8c82" d="M 170.5,116.5 C 175.491,117.363 179.491,119.696 182.5,123.5C 179.356,122.828 176.356,121.828 173.5,120.5C 172.5,119.167 171.5,117.833 170.5,116.5 Z"/></g>
<g><path style="opacity:0.084" fill="#108a7d" d="M 182.5,123.5 C 186.889,126.652 191.889,128.152 197.5,128C 199.752,130.887 202.752,132.22 206.5,132C 209.832,133.399 212.832,135.232 215.5,137.5C 210.178,135.841 204.845,134.175 199.5,132.5C 199.023,131.522 198.357,130.689 197.5,130C 192.944,129.891 188.611,128.891 184.5,127C 183.177,126.184 182.511,125.017 182.5,123.5 Z"/></g>
<g><path style="opacity:1" fill="#011005" d="M 202.5,146.5 C 206.161,146.35 207.161,147.85 205.5,151C 201.707,151.487 200.707,149.987 202.5,146.5 Z"/></g>
<g><path style="opacity:0.184" fill="#108679" d="M 215.5,137.5 C 220.182,138.683 223.015,141.683 224,146.5C 225,147.167 226,147.833 227,148.5C 227.275,151.412 228.109,154.079 229.5,156.5C 226.163,155.516 224.663,153.183 225,149.5C 222.239,148.501 220.906,146.501 221,143.5C 218.668,141.797 216.835,139.797 215.5,137.5 Z"/></g>
<g><path style="opacity:0.184" fill="#108679" d="M 229.5,156.5 C 232.855,157.855 235.189,160.189 236.5,163.5C 233.167,162.167 230.833,159.833 229.5,156.5 Z"/></g>
<g><path style="opacity:0.102" fill="#138473" d="M 236.5,163.5 C 240.588,165.254 243.255,168.254 244.5,172.5C 241.126,170.126 238.459,167.126 236.5,163.5 Z"/></g>
<g><path style="opacity:0.276" fill="#0c8b86" d="M 159.5,167.5 C 159.5,167.833 159.5,168.167 159.5,168.5C 141.821,168.167 124.154,168.5 106.5,169.5C 103.566,171.36 100.566,173.027 97.5,174.5C 97.5394,173.417 97.8728,172.417 98.5,171.5C 100.824,170.338 103.158,169.171 105.5,168C 123.497,167.5 141.497,167.333 159.5,167.5 Z"/></g>
<g><path style="opacity:0.175" fill="#0f8c80" d="M 159.5,168.5 C 161.527,168.338 163.527,168.505 165.5,169C 167.957,170.544 170.291,172.044 172.5,173.5C 170.801,173.66 169.134,173.494 167.5,173C 164.61,171.572 161.944,170.072 159.5,168.5 Z"/></g>
<g><path style="opacity:0.084" fill="#0e8b81" d="M 172.5,173.5 C 174.636,174.719 176.969,175.552 179.5,176C 180.823,176.816 181.489,177.983 181.5,179.5C 179.484,177.987 177.151,177.153 174.5,177C 173.695,175.887 173.028,174.721 172.5,173.5 Z"/></g>
<g><path style="opacity:0.208" fill="#108679" d="M 97.5,174.5 C 96.1897,177.473 94.1897,179.807 91.5,181.5C 91.8714,177.75 93.8714,175.417 97.5,174.5 Z"/></g>
<g><path style="opacity:0.114" fill="#0f877b" d="M 91.5,181.5 C 89.0282,186.097 87.8615,191.097 88,196.5C 87.2411,198.063 86.0744,199.063 84.5,199.5C 85.9191,194.305 87.0858,188.971 88,183.5C 89.1127,182.695 90.2794,182.028 91.5,181.5 Z"/></g>
<g><path style="opacity:0.214" fill="#128577" d="M 244.5,174.5 C 242.787,176.907 241.453,179.574 240.5,182.5C 238.135,183.085 236.135,184.252 234.5,186C 221.185,187.266 207.852,187.599 194.5,187C 193.167,186.667 191.833,186.333 190.5,186C 187.87,183.185 184.87,181.019 181.5,179.5C 184.066,179.344 186.566,179.678 189,180.5C 190.313,182.617 192.147,184.117 194.5,185C 207.518,185.583 220.518,185.249 233.5,184C 235.158,182.337 237.158,181.504 239.5,181.5C 239.213,177.785 240.88,175.452 244.5,174.5 Z"/></g>
<g><path style="opacity:0.118" fill="#108678" d="M 84.5,199.5 C 83.1595,207.383 79.8262,214.216 74.5,220C 73.552,220.483 72.552,220.649 71.5,220.5C 72.6018,217.653 74.6018,215.653 77.5,214.5C 79.6072,210.086 81.1072,205.419 82,200.5C 82.6708,199.748 83.5041,199.414 84.5,199.5 Z"/></g>
<g><path style="opacity:0.134" fill="#0f877b" d="M 71.5,220.5 C 71.6495,221.552 71.4828,222.552 71,223.5C 69.1828,226.144 66.6828,227.81 63.5,228.5C 62.5937,230.386 61.5937,232.22 60.5,234C 55.0987,235.013 50.432,237.346 46.5,241C 40.625,242.278 35.2917,244.445 30.5,247.5C 29.375,246.652 29.375,245.652 30.5,244.5C 35.1584,241.948 40.1584,240.615 45.5,240.5C 45.33,239.178 45.6634,238.011 46.5,237C 49.1768,236.751 51.5101,235.751 53.5,234C 55.4727,233.505 57.4727,233.338 59.5,233.5C 59.5861,231.323 60.2528,229.323 61.5,227.5C 65.0429,225.334 68.3762,223 71.5,220.5 Z"/></g>
<g><path style="opacity:0.998" fill="#146b2e" d="M 30.5,244.5 C 29.375,245.652 29.375,246.652 30.5,247.5C 32.588,249.336 33.9213,251.669 34.5,254.5C 33.5919,256.452 33.7586,258.452 35,260.5C 36.6338,262.837 38.4671,264.837 40.5,266.5C 41.4959,266.414 42.3292,266.748 43,267.5C 43.7718,273.117 45.2718,278.45 47.5,283.5C 42.5,283.5 37.5,283.5 32.5,283.5C 30.2557,272.989 24.589,264.989 15.5,259.5C 13.5915,267.911 14.5915,275.911 18.5,283.5C 12.5,283.5 6.5,283.5 0.5,283.5C 0.784479,281.585 0.451145,279.919 -0.5,278.5C -0.5,269.5 -0.5,260.5 -0.5,251.5C 1.38814,250.725 3.38814,250.725 5.5,251.5C 5.33003,250.178 5.66337,249.011 6.5,248C 8.56751,247.313 10.5675,247.48 12.5,248.5C 13.3857,247.675 13.719,246.675 13.5,245.5C 17.3745,244.355 21.2078,243.022 25,241.5C 26.7309,242.741 28.5642,243.741 30.5,244.5 Z"/></g>
<g><path style="opacity:0.098" fill="#108275" d="M 34.5,254.5 C 36.4806,258.461 38.4806,262.461 40.5,266.5C 38.4671,264.837 36.6338,262.837 35,260.5C 33.7586,258.452 33.5919,256.452 34.5,254.5 Z"/></g>
<g><path style="opacity:1" fill="#167b30" d="M 32.5,283.5 C 27.8333,283.5 23.1667,283.5 18.5,283.5C 14.5915,275.911 13.5915,267.911 15.5,259.5C 24.589,264.989 30.2557,272.989 32.5,283.5 Z"/></g>
</svg>
